<?xml version="1.0" encoding="UTF-8" standalone="no"?>
<svg
   width="171"
   height="171"
   viewBox="0 0 171 171"
   version="1.1"
   id="svg878"
   sodipodi:docname="Logo_LMU.svg"
   inkscape:export-filename="/Users/birnstiel/Desktop/Logo_LMU.png"
   inkscape:export-xdpi="96"
   inkscape:export-ydpi="96"
   inkscape:version="1.1.1 (c3084ef, 2021-09-22)"
   xmlns:inkscape="http://www.inkscape.org/namespaces/inkscape"
   xmlns:sodipodi="http://sodipodi.sourceforge.net/DTD/sodipodi-0.dtd"
   xmlns="http://www.w3.org/2000/svg"
   xmlns:svg="http://www.w3.org/2000/svg"
   xmlns:rdf="http://www.w3.org/1999/02/22-rdf-syntax-ns#"
   xmlns:cc="http://creativecommons.org/ns#"
   xmlns:dc="http://purl.org/dc/elements/1.1/">
  <sodipodi:namedview
     id="namedview880"
     pagecolor="#ffffff"
     bordercolor="#666666"
     borderopacity="1.0"
     inkscape:pageshadow="2"
     inkscape:pageopacity="0.0"
     inkscape:pagecheckerboard="true"
     showgrid="false"
     fit-margin-top="0"
     fit-margin-left="0"
     fit-margin-right="0"
     fit-margin-bottom="0"
     inkscape:zoom="1.4359517"
     inkscape:cx="17.061855"
     inkscape:cy="121.52219"
     inkscape:window-width="1383"
     inkscape:window-height="831"
     inkscape:window-x="0"
     inkscape:window-y="38"
     inkscape:window-maximized="0"
     inkscape:current-layer="g872" />
  <!-- Generator: Sketch 49.2 (51160) - http://www.bohemiancoding.com/sketch -->
  <title
     id="title824">Logo</title>
  <desc
     id="desc826">Created with Sketch.</desc>
  <defs
     id="defs828" />
  <g
     id="Startseite"
     stroke="none"
     stroke-width="1"
     fill="none"
     fill-rule="evenodd">
    <g
       id="lmu_01_start_1440"
       transform="translate(-103,-10)">
      <g
         id="header_1440">
        <g
           id="Logo"
           transform="translate(103,10)">
          <g
             id="g872">
            <g
               id="Group-2">
              <rect
                 id="Rectangle-Copy"
                 fill="#00883a"
                 x="0"
                 y="0"
                 width="171"
                 height="171" />
              <path
                 d="M 103.77574,135.34179 V 98.804003 h 20.2555 v 38.547927 c 0,2.73369 0.62904,4.68069 1.88448,5.84099 1.2607,1.16294 2.93725,1.74178 5.04281,1.74178 2.1082,0 3.80317,-0.57884 5.0902,-1.74178 1.28439,-1.1603 1.93185,-3.1073 1.93185,-5.84099 V 98.804003 h 20.16601 v 36.537787 c 0,4.36232 -0.65798,8.06688 -1.97396,11.12156 -1.31334,3.05205 -3.15571,5.53316 -5.52183,7.45648 -2.36876,1.92069 -5.23232,3.31253 -8.59333,4.18078 -3.36363,0.87352 -7.06415,1.31028 -11.09894,1.31028 -3.97687,0 -7.62739,-0.43676 -10.95944,-1.31028 -3.33468,-0.86825 -6.20088,-2.26009 -8.59859,-4.18078 -2.3977,-1.92332 -4.26902,-4.40443 -5.61132,-7.45648 -1.34492,-3.05468 -2.01344,-6.75924 -2.01344,-11.12156 z m -35.784011,9.15615 c 0,0.40781 0.200028,0.61304 0.610612,0.61304 0.289515,0 0.439536,-0.20523 0.439536,-0.61304 0.523759,-3.83875 1.197538,-8.03532 2.013443,-12.60024 0.823801,-4.56229 1.634442,-9.01144 2.455611,-13.34482 0.818537,-4.3255 1.608122,-8.26685 2.366124,-11.80828 0.760634,-3.55196 1.347559,-6.19356 1.758144,-7.940597 H 96.579985 V 157.8454 H 85.181004 v -49.70896 c 0,-0.29205 -0.210556,-0.43676 -0.618509,-0.43676 -0.231612,0 -0.35005,0.14471 -0.35005,0.43676 -0.465855,2.32324 -0.963294,4.92801 -1.489684,7.80641 -0.52639,2.8784 -1.171218,6.24881 -1.92922,10.11386 -0.763266,3.86769 -1.681817,8.38525 -2.760918,13.56058 -1.0791,5.17533 -2.355596,11.24786 -3.818961,18.22811 H 62.375144 c -1.463365,-6.86185 -2.705646,-12.7923 -3.729475,-17.79662 -1.026461,-4.99378 -1.916061,-9.38242 -2.676695,-13.16591 -0.758002,-3.7756 -1.429149,-7.14864 -2.016075,-10.11386 -0.581661,-2.96523 -1.165954,-5.841 -1.755511,-8.63257 0,-0.29205 -0.20266,-0.43676 -0.613245,-0.43676 -0.231612,0 -0.350049,0.14471 -0.350049,0.43676 V 157.8454 H 40.798406 V 98.804003 h 19.031641 c 0.292147,1.281337 0.644828,2.936287 1.052781,4.975367 0.40532,2.03382 0.86328,4.31234 1.358087,6.84344 0.497439,2.5232 1.008037,5.23321 1.537059,8.10635 0.523759,2.88103 1.050149,5.81468 1.576539,8.81148 0.529022,2.99153 1.008038,5.93045 1.450206,8.80885 0.436903,2.8784 0.834328,5.59104 1.18701,8.14845 z M 12.207517,98.804003 h 5.78503 v 54.679067 h 16.844489 v 4.36233 H 12.207517 Z"
                 id="Fill-44"
                 fill="#ffffff" />
            </g>
          </g>
        </g>
      </g>
    </g>
  </g>
  <metadata
     id="metadata1042">
    <rdf:RDF>
      <cc:Work
         rdf:about="">
        <dc:title>Logo</dc:title>
      </cc:Work>
    </rdf:RDF>
  </metadata>
</svg>
